<?xml version="1.0" standalone="no"?>
<!DOCTYPE svg PUBLIC "-//W3C//DTD SVG 20010904//EN"
 "http://www.w3.org/TR/2001/REC-SVG-20010904/DTD/svg10.dtd">
<svg version="1.0" xmlns="http://www.w3.org/2000/svg"
 width="16.000000pt" height="16.000000pt" viewBox="0 0 16.000000 16.000000"
 preserveAspectRatio="xMidYMid meet">
<metadata>
Created by potrace 1.11, written by Peter Selinger 2001-2013
</metadata>
<g transform="translate(0.000000,16.000000) scale(0.008000,-0.008000)"
fill="#000000" stroke="none">
<path d="M972 1888 c-7 -7 -12 -42 -12 -89 0 -89 13 -110 55 -91 24 11 25 16
25 90 0 79 -9 102 -40 102 -9 0 -21 -5 -28 -12z"/>
<path d="M624 1739 c-20 -22 -11 -39 53 -100 53 -52 80 -58 96 -22 10 22 5 29
-47 82 -61 62 -77 68 -102 40z"/>
<path d="M1276 1701 c-45 -46 -57 -63 -52 -79 14 -42 45 -37 98 14 69 68 76
83 48 106 -12 10 -25 18 -29 18 -4 0 -33 -26 -65 -59z"/>
<path d="M900 1620 c-85 -34 -159 -119 -174 -200 -2 -14 -5 -105 -5 -202 l-1
-178 -28 0 c-43 0 -52 -16 -52 -100 0 -46 5 -81 12 -88 7 -7 43 -12 90 -12
l78 0 2 -361 c3 -332 4 -363 21 -373 12 -8 22 -8 35 0 16 10 17 41 20 373 l2
361 100 0 100 0 0 -239 c0 -202 2 -241 15 -251 12 -10 21 -10 40 -2 l25 12 0
240 0 240 78 0 c47 0 83 5 90 12 7 7 12 42 12 88 0 84 -9 100 -52 100 l-28 0
0 179 c0 206 -11 256 -70 324 -55 62 -111 89 -195 92 -50 3 -83 -2 -115 -15z
m200 -87 c41 -26 79 -74 90 -112 5 -20 10 -114 10 -208 l0 -173 -201 0 -201 0
4 193 c3 170 5 195 22 222 32 48 78 86 121 98 33 10 128 -3 155 -20z m180
-593 c0 -20 -7 -20 -280 -20 -273 0 -280 0 -280 20 0 20 7 20 280 20 273 0
280 0 280 -20z"/>
<path d="M940 1507 c-49 -17 -102 -89 -98 -135 6 -68 64 -69 81 -1 11 43 27
59 67 68 41 8 60 34 44 59 -14 21 -49 25 -94 9z"/>
<path d="M482 1398 c-6 -6 -12 -20 -12 -29 0 -31 25 -40 106 -37 60 2 79 7 88
21 8 12 8 22 0 35 -9 13 -28 18 -90 20 -53 2 -83 -1 -92 -10z"/>
<path d="M1342 1398 c-6 -6 -12 -20 -12 -29 0 -31 25 -40 106 -37 60 2 79 7
88 21 8 12 8 22 0 35 -9 13 -28 18 -90 20 -53 2 -83 -1 -92 -10z"/>
</g>
</svg>
